<?xml version="1.0" standalone="no"?><!DOCTYPE svg PUBLIC "-//W3C//DTD SVG 1.1//EN" "http://www.w3.org/Graphics/SVG/1.1/DTD/svg11.dtd"><svg height="800" node-id="1" sillyvg="true" template-height="800" template-width="800" version="1.1" viewBox="0 0 800 800" width="800" xmlns="http://www.w3.org/2000/svg" xmlns:xlink="http://www.w3.org/1999/xlink"><defs node-id="48"><linearGradient gradientUnits="objectBoundingBox" id="SVGID_1_" node-id="17" spreadMethod="pad" x1="387.151" x2="387.151" y1="87.6274" y2="706.619"><stop offset="0.0000001918004" stop-color="#f6f8ff"></stop><stop offset="1" stop-color="#d9e3ff"></stop></linearGradient><linearGradient gradientUnits="objectBoundingBox" id="SVGID_2_" node-id="25" spreadMethod="pad" x1="355.0491" x2="355.0491" y1="213.3761" y2="609.6453"><stop offset="0.0000004795011" stop-color="#a9bfff"></stop><stop offset="1" stop-color="#7c9cff"></stop></linearGradient><linearGradient gradientUnits="objectBoundingBox" id="SVGID_3_" node-id="29" spreadMethod="pad" x1="299.1851" x2="529.8334" y1="178.7297" y2="578.2243"><stop offset="0" stop-color="#d4e1ff"></stop><stop offset="1" stop-color="#7798ff"></stop></linearGradient><linearGradient gradientUnits="objectBoundingBox" id="SVGID_4_" node-id="37" spreadMethod="pad" x1="410.7656" x2="558.4462" y1="392.5917" y2="648.382"><stop offset="0" stop-color="#c0d1ff"></stop><stop offset="1" stop-color="#7198fd"></stop></linearGradient></defs><g node-id="125"><g node-id="132"><g node-id="133"><path d="M 685.00 167.60 L 684.80 170.20 L 683.50 175.20 L 680.90 179.60 L 679.20 181.60 L 677.20 183.30 L 672.80 185.90 L 667.80 187.20 L 665.20 187.40 L 662.60 187.20 L 657.60 185.90 L 653.20 183.30 L 651.20 181.60 L 648.10 177.50 L 646.10 172.70 L 645.60 170.20 L 645.40 167.60 L 646.10 162.50 L 648.10 157.70 L 651.20 153.60 L 653.20 151.90 L 657.60 149.30 L 662.60 148.00 L 665.20 147.80 L 667.80 148.00 L 672.80 149.30 L 677.20 151.90 L 679.20 153.60 L 680.90 155.60 L 683.50 160.00 L 684.80 165.00 L 685.00 167.60 Z" fill="#f3f6ff" fill-rule="nonzero" group-id="1,8,9" node-id="80" stroke="none" target-height="39.59999" target-width="39.599976" target-x="645.4" target-y="147.8"></path><path d="M 116.90 619.40 L 116.70 622.00 L 115.40 627.00 L 112.80 631.40 L 111.10 633.40 L 109.10 635.10 L 104.60 637.70 L 99.70 639.00 L 97.10 639.20 L 94.50 639.00 L 89.50 637.70 L 85.10 635.10 L 83.10 633.40 L 81.40 631.40 L 78.80 627.00 L 77.50 622.00 L 77.30 619.40 L 77.50 616.80 L 78.80 611.80 L 81.40 607.40 L 83.10 605.40 L 85.10 603.70 L 89.50 601.10 L 94.50 599.80 L 97.10 599.60 L 99.70 599.80 L 104.60 601.10 L 109.10 603.70 L 111.10 605.40 L 112.80 607.40 L 115.40 611.80 L 116.70 616.80 L 116.90 619.40 Z" fill="#dfe7ff" fill-rule="nonzero" group-id="1,8,9" node-id="82" stroke="none" target-height="39.600037" target-width="39.6" target-x="77.3" target-y="599.6"></path><path d="M 218.20 681.40 L 215.80 681.20 L 213.50 680.60 L 211.50 679.60 L 208.00 676.60 L 205.70 672.70 L 205.10 670.50 L 204.80 668.00 L 205.10 665.60 L 205.70 663.30 L 208.00 659.40 L 211.50 656.50 L 213.50 655.50 L 215.80 654.90 L 218.20 654.60 L 220.60 654.90 L 222.90 655.50 L 226.80 657.80 L 229.80 661.30 L 230.80 663.30 L 231.40 665.60 L 231.60 668.00 L 231.40 670.50 L 230.70 672.70 L 228.40 676.60 L 225.00 679.60 L 222.90 680.60 L 220.60 681.20 L 218.20 681.40 Z M 218.20 661.10 L 216.40 661.30 L 214.70 662.00 L 213.30 663.10 L 212.20 664.50 L 211.50 666.20 L 211.30 668.00 L 211.50 669.90 L 212.20 671.50 L 213.30 672.90 L 214.70 674.00 L 216.40 674.70 L 218.20 675.00 L 220.10 674.70 L 221.70 674.00 L 223.10 672.90 L 224.20 671.50 L 224.90 669.90 L 225.20 668.00 L 224.90 666.20 L 224.20 664.50 L 223.10 663.10 L 221.70 662.00 L 220.10 661.30 L 218.20 661.10 Z" fill="#dfe7ff" fill-rule="nonzero" group-id="1,8,9" node-id="84" stroke="none" target-height="26.800049" target-width="26.800003" target-x="204.8" target-y="654.6"></path><path d="M 596.60 108.30 L 576.70 108.30 L 576.70 88.30 L 576.40 86.50 L 575.80 84.90 L 574.70 83.60 L 573.40 82.60 L 571.80 81.90 L 570.00 81.70 L 568.20 81.90 L 566.70 82.60 L 565.40 83.60 L 564.30 84.90 L 563.70 86.50 L 563.40 88.30 L 563.40 108.30 L 543.40 108.30 L 541.60 108.50 L 540.10 109.20 L 538.80 110.20 L 537.70 111.50 L 537.10 113.10 L 536.80 114.90 L 537.10 116.70 L 537.70 118.20 L 538.80 119.60 L 540.10 120.60 L 541.60 121.20 L 543.40 121.50 L 563.40 121.50 L 563.40 141.50 L 563.70 143.30 L 564.30 144.80 L 565.40 146.20 L 566.70 147.20 L 568.20 147.80 L 570.00 148.10 L 571.80 147.80 L 573.40 147.20 L 574.70 146.20 L 575.80 144.80 L 576.40 143.30 L 576.70 141.50 L 576.70 121.50 L 596.60 121.50 L 598.40 121.20 L 600.00 120.60 L 601.30 119.60 L 602.40 118.20 L 603.00 116.70 L 603.30 114.90 L 603.00 113.10 L 602.40 111.50 L 601.30 110.20 L 600.00 109.20 L 598.40 108.50 L 596.60 108.30 Z" fill="#f3f6ff" fill-rule="nonzero" group-id="1,8,9" node-id="86" stroke="none" target-height="66.40001" target-width="66.5" target-x="536.8" target-y="81.7"></path><path d="M 654.20 685.30 L 639.40 685.30 L 639.20 669.00 L 638.60 667.70 L 636.60 665.70 L 633.90 664.90 L 631.10 665.70 L 629.10 667.70 L 628.60 669.00 L 628.40 685.30 L 613.50 685.30 L 610.70 686.00 L 608.80 688.00 L 608.00 690.80 L 608.20 692.30 L 608.80 693.60 L 610.70 695.60 L 613.50 696.30 L 628.40 696.30 L 628.60 712.60 L 629.10 713.90 L 631.10 715.90 L 633.90 716.70 L 636.60 715.90 L 638.60 713.90 L 639.20 712.60 L 639.40 696.30 L 654.20 696.30 L 657.00 695.60 L 659.00 693.60 L 659.70 690.80 L 659.00 688.00 L 657.00 686.00 L 654.20 685.30 Z" fill="#dfe7ff" fill-rule="nonzero" group-id="1,8,9" node-id="88" stroke="none" target-height="51.799988" target-width="51.700012" target-x="608" target-y="664.9"></path><path d="M 119.20 123.70 L 121.50 125.70 L 126.50 128.60 L 132.10 130.00 L 137.70 130.00 L 143.30 128.60 L 148.30 125.70 L 150.70 123.70 L 154.30 118.90 L 155.60 116.30 L 157.00 110.80 L 157.00 105.10 L 156.50 102.30 L 154.30 97.00 L 152.70 94.50 L 144.00 85.50 L 141.70 83.50 L 136.60 80.60 L 131.10 79.20 L 125.40 79.20 L 119.90 80.60 L 114.80 83.50 L 112.50 85.50 L 108.80 90.30 L 107.60 92.90 L 106.10 98.50 L 106.10 104.10 L 106.70 106.90 L 108.80 112.20 L 110.50 114.70 L 119.20 123.70 Z" fill="#f3f6ff" fill-rule="nonzero" group-id="1,8,9" node-id="90" stroke="none" target-height="50.800003" target-width="50.9" target-x="106.1" target-y="79.2"></path><path d="M 233.90 115.70 L 236.80 117.70 L 240.20 118.60 L 243.60 118.30 L 245.30 117.70 L 248.30 115.70 L 250.30 112.70 L 250.90 111.00 L 251.20 107.60 L 250.30 104.20 L 248.30 101.30 L 238.20 91.30 L 235.30 89.20 L 231.90 88.30 L 228.50 88.60 L 225.30 90.10 L 223.90 91.30 L 222.70 92.70 L 221.20 95.90 L 220.90 99.30 L 221.80 102.70 L 223.90 105.60 L 233.90 115.70 Z" fill="#f3f6ff" fill-rule="nonzero" group-id="1,8,9" node-id="92" stroke="none" target-height="30.299995" target-width="30.300003" target-x="220.9" target-y="88.3"></path><path d="M 82.80 316.40 L 85.80 318.40 L 87.40 319.00 L 90.80 319.30 L 94.20 318.40 L 97.20 316.40 L 99.20 313.40 L 100.10 310.00 L 99.80 306.60 L 99.20 305.00 L 97.20 302.00 L 87.20 292.00 L 84.20 289.90 L 80.80 289.00 L 77.40 289.30 L 74.20 290.80 L 72.80 292.00 L 71.60 293.40 L 70.10 296.60 L 69.80 300.00 L 70.70 303.40 L 72.80 306.40 L 82.80 316.40 Z" fill="#f3f6ff" fill-rule="nonzero" group-id="1,8,9" node-id="94" stroke="none" target-height="30.299988" target-width="30.299995" target-x="69.8" target-y="289"></path><path d="M 610.80 623.80 L 607.80 621.80 L 604.40 620.90 L 601.00 621.20 L 599.30 621.80 L 596.40 623.80 L 594.30 626.80 L 593.40 630.20 L 593.70 633.60 L 594.30 635.20 L 596.40 638.20 L 606.40 648.20 L 609.40 650.30 L 612.70 651.20 L 616.20 650.90 L 619.30 649.40 L 620.80 648.20 L 622.00 646.80 L 623.40 643.60 L 623.70 640.20 L 622.80 636.80 L 620.80 633.80 L 610.80 623.80 Z" fill="#dfe7ff" fill-rule="nonzero" group-id="1,8,9" node-id="96" stroke="none" target-height="30.299988" target-width="30.299988" target-x="593.4" target-y="620.9"></path><path d="M 731.20 632.30 L 730.90 636.70 L 730.00 640.80 L 728.70 644.90 L 726.80 648.70 L 724.40 652.20 L 721.60 655.50 L 718.30 658.40 L 714.70 660.70 L 710.90 662.60 L 706.90 664.00 L 702.70 664.80 L 698.40 665.10 L 694.00 664.80 L 689.90 664.00 L 685.80 662.60 L 682.00 660.70 L 678.50 658.40 L 675.20 655.50 L 672.30 652.20 L 670.00 648.70 L 668.10 644.90 L 666.70 640.80 L 665.90 636.70 L 665.60 632.30 L 665.90 628.00 L 666.70 623.80 L 668.10 619.80 L 670.00 616.00 L 672.30 612.40 L 675.20 609.10 L 678.50 606.30 L 682.00 603.90 L 685.80 602.00 L 689.90 600.70 L 694.00 599.80 L 698.40 599.60 L 702.70 599.80 L 706.90 600.70 L 710.90 602.00 L 714.70 603.90 L 718.30 606.30 L 721.60 609.10 L 724.40 612.40 L 726.80 616.00 L 728.70 619.80 L 730.00 623.80 L 730.90 628.00 L 731.20 632.30 Z" fill="#dfe7ff" fill-rule="nonzero" group-id="1,8,9" node-id="98" stroke="none" target-height="65.5" target-width="65.60004" target-x="665.6" target-y="599.6"></path><path d="M 699.00 480.40 L 667.50 448.90 L 647.60 427.60 L 646.00 425.60 L 644.90 423.60 L 643.70 419.00 L 644.00 414.40 L 644.80 412.20 L 645.90 410.10 L 647.40 408.10 L 649.40 406.30 L 651.60 405.00 L 654.00 404.10 L 656.50 403.60 L 658.90 403.60 L 661.40 404.00 L 663.80 404.80 L 666.00 406.10 L 668.10 407.90 L 681.50 421.60 L 683.40 423.30 L 685.50 424.50 L 690.20 425.80 L 694.90 425.60 L 697.20 424.80 L 699.30 423.70 L 701.30 422.10 L 703.00 420.20 L 704.20 418.10 L 705.00 415.80 L 705.50 413.40 L 705.50 411.10 L 705.10 408.70 L 704.30 406.40 L 703.10 404.30 L 701.50 402.30 L 682.80 383.70 L 679.60 380.00 L 676.80 376.10 L 674.40 372.00 L 672.50 367.60 L 671.10 363.00 L 668.30 346.60 L 666.10 335.20 L 663.40 324.00 L 660.20 313.10 L 656.60 302.30 L 652.50 291.60 L 648.10 281.20 L 643.20 271.10 L 638.00 261.10 L 632.30 251.50 L 626.30 242.00 L 619.90 232.80 L 613.20 223.90 L 606.10 215.30 L 598.70 207.00 L 590.90 199.00 L 582.80 191.30 L 574.50 183.90 L 565.80 176.90 L 556.90 170.20 L 547.60 163.80 L 538.20 157.90 L 528.50 152.30 L 518.50 147.10 L 508.20 142.30 L 497.80 137.90 L 487.20 133.90 L 476.40 130.40 L 465.30 127.30 L 454.00 124.60 L 442.70 122.40 L 431.20 120.70 L 419.50 119.40 L 407.70 118.70 L 395.60 118.40 L 381.30 118.80 L 376.30 118.30 L 371.60 116.60 L 369.50 115.20 L 348.50 94.40 L 343.80 90.80 L 338.50 88.50 L 334.80 87.80 L 331.00 87.70 L 327.30 88.20 L 322.00 90.10 L 319.50 91.60 L 317.10 93.50 L 315.00 95.80 L 313.20 98.20 L 311.90 100.90 L 310.90 103.70 L 310.00 109.40 L 310.70 115.20 L 311.60 118.00 L 312.80 120.70 L 314.50 123.20 L 330.30 139.80 L 332.20 142.30 L 333.60 145.00 L 334.40 147.80 L 334.60 150.70 L 334.40 153.60 L 333.60 156.40 L 332.30 159.00 L 330.60 161.40 L 328.20 163.50 L 325.90 164.90 L 323.60 165.80 L 321.30 166.30 L 318.90 166.30 L 316.60 166.00 L 312.10 164.10 L 308.00 160.80 L 269.30 122.30 L 267.20 120.70 L 264.80 119.70 L 262.30 119.20 L 259.80 119.40 L 258.20 119.80 L 255.20 121.60 L 252.80 124.60 L 251.80 128.10 L 252.00 131.60 L 252.60 133.40 L 254.70 136.50 L 278.40 160.10 L 280.10 162.50 L 282.20 167.60 L 282.90 171.20 L 282.90 174.80 L 282.30 178.40 L 280.20 183.50 L 276.60 188.20 L 274.30 190.20 L 271.90 191.80 L 266.70 193.80 L 263.00 194.40 L 259.30 194.40 L 255.60 193.70 L 250.40 191.60 L 245.70 187.90 L 231.00 172.60 L 195.70 137.30 L 193.30 135.30 L 190.90 133.70 L 185.60 131.50 L 179.90 130.80 L 174.30 131.50 L 169.00 133.70 L 166.50 135.30 L 164.20 137.30 L 160.50 142.10 L 159.30 144.70 L 157.80 150.20 L 157.80 155.90 L 158.40 158.70 L 160.50 164.00 L 164.20 168.80 L 189.80 194.50 L 198.80 202.90 L 202.30 207.50 L 204.50 212.70 L 205.10 216.40 L 205.20 220.00 L 204.60 223.70 L 203.80 226.40 L 201.10 231.30 L 199.20 233.70 L 196.80 235.80 L 194.30 237.50 L 191.60 238.80 L 188.80 239.80 L 185.90 240.30 L 180.00 240.30 L 174.30 238.60 L 171.70 237.20 L 169.20 235.50 L 146.60 212.40 L 143.20 209.40 L 139.70 207.00 L 135.90 205.10 L 131.90 203.70 L 127.80 202.80 L 123.60 202.50 L 119.50 202.60 L 115.40 203.30 L 111.30 204.50 L 107.50 206.20 L 103.90 208.40 L 100.40 211.20 L 97.30 214.70 L 94.80 218.30 L 92.80 222.10 L 91.40 226.20 L 90.50 230.40 L 90.20 234.60 L 90.40 238.90 L 91.20 243.10 L 92.50 247.20 L 94.40 251.10 L 96.80 254.80 L 99.80 258.20 L 154.90 313.20 L 156.90 315.60 L 158.40 318.10 L 159.30 320.90 L 159.80 323.80 L 159.70 326.60 L 159.20 329.50 L 158.10 332.20 L 156.60 334.80 L 154.50 337.10 L 152.10 338.90 L 149.60 340.20 L 147.00 341.00 L 144.20 341.40 L 141.50 341.30 L 138.70 340.80 L 136.10 339.80 L 133.70 338.40 L 131.50 336.50 L 118.00 322.80 L 116.60 321.60 L 113.40 320.10 L 110.00 319.80 L 108.20 320.10 L 105.10 321.60 L 103.60 322.80 L 102.10 324.30 L 101.10 325.90 L 100.60 327.60 L 100.40 331.00 L 100.90 332.80 L 102.00 335.10 L 103.70 337.20 L 121.50 355.00 L 158.50 391.10 L 160.40 393.40 L 161.80 395.80 L 162.70 398.40 L 163.20 401.10 L 163.20 403.80 L 162.80 406.50 L 161.80 409.20 L 160.40 411.60 L 158.60 413.80 L 156.30 415.70 L 153.90 417.00 L 151.40 417.90 L 148.70 418.40 L 146.10 418.40 L 143.40 418.00 L 140.80 417.10 L 138.50 415.70 L 136.20 413.90 L 92.60 370.70 L 90.60 369.10 L 88.50 367.90 L 86.30 367.00 L 83.90 366.50 L 79.20 366.80 L 76.90 367.50 L 74.80 368.60 L 72.80 370.20 L 71.10 372.20 L 69.90 374.30 L 69.00 376.50 L 68.60 378.90 L 68.60 381.30 L 69.00 383.70 L 69.70 385.90 L 70.90 388.10 L 72.60 390.10 L 116.50 433.90 L 118.90 436.80 L 120.90 439.90 L 122.40 443.40 L 126.00 459.50 L 129.20 471.70 L 132.80 483.60 L 137.00 495.30 L 141.80 506.70 L 147.00 518.00 L 152.70 528.90 L 158.90 539.50 L 165.50 549.80 L 172.50 559.80 L 180.00 569.50 L 187.90 578.80 L 196.10 587.80 L 204.80 596.40 L 213.80 604.60 L 223.20 612.40 L 233.00 619.80 L 243.00 626.80 L 253.40 633.30 L 264.10 639.40 L 275.00 645.00 L 286.30 650.20 L 297.70 654.80 L 309.50 658.90 L 321.60 662.60 L 333.70 665.60 L 346.10 668.20 L 358.70 670.10 L 371.50 671.50 L 388.20 672.70 L 391.70 673.50 L 395.00 674.70 L 398.20 676.20 L 401.10 678.20 L 403.90 680.50 L 424.20 699.80 L 428.90 703.50 L 434.10 705.70 L 437.90 706.50 L 441.60 706.60 L 445.30 706.10 L 450.70 704.20 L 453.10 702.70 L 455.50 700.80 L 457.60 698.50 L 459.40 696.00 L 460.80 693.40 L 461.80 690.60 L 462.60 684.80 L 461.90 679.00 L 459.80 673.60 L 458.10 671.00 L 456.10 668.70 L 444.00 656.20 L 442.40 654.00 L 441.20 651.70 L 440.50 649.30 L 440.20 646.70 L 440.30 644.20 L 440.90 641.70 L 441.90 639.40 L 443.30 637.20 L 445.20 635.30 L 447.40 633.80 L 449.60 632.70 L 451.90 632.00 L 454.30 631.80 L 459.10 632.40 L 461.40 633.40 L 463.40 634.70 L 485.60 657.60 L 507.60 679.60 L 510.00 681.70 L 512.50 683.30 L 518.00 685.50 L 520.80 686.00 L 526.70 685.90 L 532.30 684.30 L 534.90 682.90 L 537.40 681.20 L 539.70 679.10 L 541.60 676.70 L 543.10 674.20 L 545.00 668.90 L 545.50 665.10 L 545.40 661.40 L 544.60 657.70 L 543.70 655.00 L 540.80 650.00 L 522.40 631.10 L 520.30 628.70 L 518.60 626.10 L 517.30 623.30 L 515.90 617.50 L 516.10 611.50 L 516.70 608.60 L 519.10 603.00 L 520.90 600.50 L 523.10 598.10 L 526.00 595.70 L 528.50 594.10 L 533.90 592.00 L 537.70 591.40 L 541.50 591.40 L 545.30 592.10 L 550.70 594.20 L 553.20 595.80 L 555.60 597.80 L 575.40 617.10 L 577.50 618.80 L 579.80 619.80 L 582.30 620.30 L 584.90 620.10 L 588.00 618.90 L 590.80 616.40 L 591.80 614.90 L 592.90 611.40 L 592.70 607.80 L 591.20 604.50 L 584.80 597.90 L 582.20 595.80 L 576.30 590.20 L 560.00 573.60 L 552.20 565.50 L 549.70 561.90 L 548.80 557.70 L 549.20 553.60 L 550.00 551.60 L 552.60 548.00 L 556.30 545.60 L 558.30 545.00 L 562.50 544.70 L 566.50 545.90 L 568.40 547.00 L 601.10 581.30 L 615.20 595.50 L 618.60 598.40 L 622.10 600.80 L 625.90 602.70 L 629.90 604.10 L 634.00 605.00 L 638.20 605.40 L 642.40 605.20 L 646.40 604.60 L 650.50 603.40 L 654.30 601.70 L 658.00 599.40 L 661.40 596.60 L 664.50 593.20 L 667.00 589.60 L 669.00 585.70 L 670.40 581.60 L 671.30 577.50 L 671.60 573.20 L 671.40 569.00 L 670.70 564.80 L 669.30 560.70 L 667.50 556.80 L 665.10 553.10 L 662.10 549.60 L 639.50 527.10 L 628.10 514.60 L 626.40 512.50 L 625.20 510.20 L 624.40 507.80 L 624.10 505.20 L 624.20 502.70 L 624.60 500.20 L 625.50 497.80 L 626.90 495.60 L 628.60 493.50 L 630.80 491.80 L 633.20 490.50 L 635.70 489.70 L 638.30 489.30 L 640.90 489.40 L 643.50 489.90 L 646.00 490.90 L 648.20 492.30 L 667.90 512.20 L 670.20 514.30 L 672.80 515.90 L 675.40 517.20 L 681.10 518.60 L 686.90 518.50 L 689.80 517.90 L 695.20 515.50 L 697.60 513.80 L 700.00 511.70 L 703.40 506.80 L 705.30 501.50 L 705.80 497.80 L 705.70 494.10 L 704.90 490.30 L 702.70 485.10 L 699.00 480.40 Z" fill="url(#SVGID_1_)" fill-rule="nonzero" group-id="1,8,9" node-id="100" stroke="none" target-height="618.89996" target-width="637.2" target-x="68.6" target-y="87.7"></path><path d="M 426.80 201.30 L 412.00 201.30 L 411.80 184.90 L 411.20 183.60 L 409.30 181.60 L 406.50 180.90 L 403.70 181.60 L 401.70 183.60 L 401.20 184.90 L 401.00 201.30 L 386.10 201.30 L 383.40 202.00 L 381.40 204.00 L 380.60 206.80 L 380.80 208.30 L 381.40 209.50 L 383.40 211.50 L 386.10 212.30 L 401.00 212.30 L 401.20 228.60 L 402.60 231.00 L 405.00 232.40 L 406.50 232.60 L 409.30 231.90 L 411.20 229.90 L 411.80 228.60 L 412.00 212.30 L 426.80 212.30 L 429.60 211.50 L 431.60 209.50 L 432.30 206.80 L 431.60 204.00 L 429.60 202.00 L 426.80 201.30 Z" fill="#ffffff" fill-rule="nonzero" group-id="1,8,9" node-id="102" stroke="none" target-height="51.700012" target-width="51.69998" target-x="380.6" target-y="180.9"></path><path d="M 582.60 419.80 L 580.10 419.60 L 577.90 419.00 L 574.00 416.60 L 571.00 413.20 L 570.00 411.10 L 569.40 408.80 L 569.20 406.40 L 569.40 404.00 L 570.00 401.70 L 572.40 397.80 L 575.80 394.90 L 577.90 393.90 L 580.10 393.30 L 582.60 393.00 L 585.00 393.30 L 587.30 393.90 L 591.20 396.20 L 594.10 399.70 L 595.10 401.70 L 595.70 404.00 L 596.00 406.40 L 595.70 408.80 L 595.10 411.10 L 594.10 413.20 L 591.20 416.60 L 587.30 419.00 L 585.00 419.60 L 582.60 419.80 Z M 582.60 399.50 L 580.70 399.70 L 579.10 400.40 L 577.70 401.50 L 576.60 402.90 L 575.90 404.50 L 575.60 406.40 L 575.90 408.30 L 576.60 409.90 L 577.70 411.30 L 579.10 412.40 L 580.70 413.10 L 582.60 413.40 L 584.40 413.10 L 586.10 412.40 L 587.50 411.30 L 588.60 409.90 L 589.30 408.30 L 589.50 406.40 L 589.30 404.50 L 588.60 402.90 L 587.50 401.50 L 586.10 400.40 L 584.40 399.70 L 582.60 399.50 Z" fill="#ffffff" fill-rule="nonzero" group-id="1,8,9" node-id="104" stroke="none" target-height="26.799988" target-width="26.799988" target-x="569.2" target-y="393"></path><path d="M 219.90 521.80 L 217.50 521.60 L 215.30 521.00 L 211.30 518.70 L 208.40 515.20 L 207.40 513.10 L 206.80 510.90 L 206.60 508.40 L 206.80 506.00 L 207.40 503.80 L 209.70 499.80 L 213.20 496.90 L 215.30 495.90 L 217.50 495.30 L 219.90 495.10 L 222.40 495.30 L 224.60 495.90 L 228.60 498.20 L 231.50 501.70 L 232.50 503.80 L 233.10 506.00 L 233.30 508.40 L 233.10 510.90 L 232.50 513.10 L 230.20 517.10 L 226.70 520.00 L 224.60 521.00 L 222.40 521.60 L 219.90 521.80 Z M 219.90 501.50 L 218.10 501.70 L 216.40 502.40 L 215.00 503.50 L 213.90 504.90 L 213.20 506.60 L 213.00 508.40 L 213.20 510.30 L 213.90 511.90 L 215.00 513.40 L 216.40 514.40 L 218.10 515.10 L 219.90 515.40 L 221.80 515.10 L 223.40 514.40 L 224.80 513.40 L 225.90 511.90 L 226.60 510.30 L 226.90 508.40 L 226.60 506.60 L 225.90 504.90 L 224.80 503.50 L 223.40 502.40 L 221.80 501.70 L 219.90 501.50 Z" fill="#ffffff" fill-rule="nonzero" group-id="1,8,9" node-id="106" stroke="none" target-height="26.699982" target-width="26.699997" target-x="206.6" target-y="495.1"></path></g><g node-id="134"><path d="M 471.10 609.70 L 239.10 609.70 L 234.90 609.40 L 231.00 608.60 L 227.20 607.30 L 223.70 605.50 L 220.50 603.30 L 217.60 600.80 L 215.00 597.80 L 212.90 594.60 L 211.10 591.10 L 209.80 587.40 L 209.00 583.50 L 208.70 579.30 L 208.70 243.70 L 209.00 239.50 L 209.80 235.60 L 211.10 231.90 L 212.90 228.40 L 215.00 225.20 L 217.60 222.30 L 220.50 219.70 L 223.70 217.50 L 227.20 215.80 L 231.00 214.50 L 234.90 213.70 L 239.10 213.40 L 471.00 213.40 L 475.20 213.70 L 479.10 214.50 L 482.90 215.80 L 486.40 217.50 L 489.60 219.70 L 492.50 222.30 L 495.10 225.20 L 497.20 228.40 L 499.00 231.90 L 500.30 235.60 L 501.10 239.50 L 501.40 243.70 L 501.40 579.30 L 501.10 583.50 L 500.30 587.40 L 499.00 591.10 L 497.20 594.60 L 495.10 597.80 L 492.50 600.80 L 489.60 603.30 L 486.40 605.50 L 482.90 607.30 L 479.10 608.60 L 475.20 609.40 L 471.10 609.70 Z" fill="url(#SVGID_2_)" fill-rule="nonzero" group-id="1,8,10" node-id="111" stroke="none" target-height="396.30002" target-width="292.7" target-x="208.7" target-y="213.4"></path><path d="M 530.50 573.10 L 298.50 573.10 L 294.30 572.90 L 290.40 572.10 L 286.70 570.80 L 283.20 569.00 L 280.00 566.80 L 277.10 564.30 L 274.50 561.30 L 272.30 558.10 L 270.60 554.60 L 269.30 550.90 L 268.50 547.00 L 268.20 542.80 L 268.20 214.20 L 268.50 210.00 L 269.30 206.10 L 270.60 202.30 L 272.30 198.80 L 274.50 195.60 L 277.10 192.70 L 280.00 190.10 L 283.20 188.00 L 286.70 186.20 L 290.40 184.90 L 294.30 184.10 L 298.50 183.80 L 530.50 183.80 L 534.70 184.10 L 538.60 184.90 L 542.30 186.20 L 545.80 188.00 L 549.00 190.10 L 552.00 192.70 L 554.50 195.60 L 556.70 198.80 L 558.50 202.30 L 559.80 206.10 L 560.60 210.00 L 560.80 214.20 L 560.80 542.80 L 560.60 547.00 L 559.80 550.90 L 558.50 554.60 L 556.70 558.10 L 554.50 561.30 L 552.00 564.30 L 549.00 566.80 L 545.80 569.00 L 542.30 570.80 L 538.60 572.10 L 534.70 572.90 L 530.50 573.10 Z" fill="url(#SVGID_3_)" fill-rule="nonzero" group-id="1,8,10" node-id="113" stroke="none" target-height="389.3" target-width="292.59998" target-x="268.2" target-y="183.8"></path><path d="M 523.70 250.60 L 306.50 250.60 L 305.30 250.40 L 303.30 249.30 L 302.10 247.30 L 302.00 246.10 L 302.10 238.00 L 303.30 236.00 L 305.30 234.80 L 523.70 234.70 L 525.00 234.80 L 526.90 236.00 L 528.10 238.00 L 528.30 239.20 L 528.10 247.30 L 527.60 248.30 L 526.00 250.00 L 523.70 250.60 Z" fill="#f7f8f8" fill-rule="nonzero" group-id="1,8,10" node-id="115" stroke="none" target-height="15.900009" target-width="226.29999" target-x="302" target-y="234.7"></path><path d="M 523.70 308.50 L 306.50 308.50 L 305.30 308.40 L 303.30 307.20 L 302.10 305.20 L 302.00 304.00 L 302.10 295.90 L 302.60 294.90 L 304.20 293.20 L 306.50 292.60 L 523.70 292.60 L 525.00 292.80 L 526.90 293.90 L 528.10 295.90 L 528.30 297.20 L 528.10 305.20 L 527.60 306.30 L 526.00 307.90 L 523.70 308.50 Z" fill="#f7f8f8" fill-rule="nonzero" group-id="1,8,10" node-id="117" stroke="none" target-height="15.899994" target-width="226.29999" target-x="302" target-y="292.6"></path><path d="M 523.70 367.30 L 306.50 367.30 L 305.30 367.10 L 303.30 366.00 L 302.10 364.00 L 302.00 362.80 L 302.10 354.70 L 303.30 352.70 L 305.30 351.50 L 523.70 351.40 L 525.00 351.50 L 526.90 352.70 L 528.10 354.70 L 528.30 355.90 L 528.10 364.00 L 527.60 365.00 L 526.00 366.70 L 523.70 367.30 Z" fill="#f7f8f8" fill-rule="nonzero" group-id="1,8,10" node-id="119" stroke="none" target-height="15.899994" target-width="226.29999" target-x="302" target-y="351.4"></path><path d="M 393.20 429.70 L 305.30 429.50 L 303.30 428.30 L 302.10 426.30 L 302.00 418.30 L 302.60 416.00 L 304.20 414.30 L 305.30 413.90 L 394.40 413.90 L 396.40 415.10 L 397.50 417.00 L 397.70 425.10 L 397.50 426.30 L 396.40 428.30 L 394.40 429.50 L 393.20 429.70 Z" fill="#f7f8f8" fill-rule="nonzero" group-id="1,8,10" node-id="121" stroke="none" target-height="15.800018" target-width="95.70001" target-x="302" target-y="413.9"></path><path d="M 623.60 565.50 L 556.30 512.20 L 559.20 501.80 L 560.30 496.40 L 561.50 485.40 L 561.40 473.00 L 560.80 466.50 L 559.80 460.20 L 558.30 454.00 L 556.50 447.90 L 553.70 440.50 L 550.40 433.50 L 546.60 426.70 L 542.20 420.30 L 537.40 414.20 L 532.20 408.60 L 526.50 403.40 L 520.40 398.50 L 514.00 394.20 L 507.30 390.40 L 500.20 387.00 L 492.80 384.20 L 486.80 382.40 L 480.60 381.00 L 474.30 380.00 L 467.70 379.30 L 461.10 379.10 L 454.40 379.30 L 447.80 380.00 L 441.50 381.00 L 435.30 382.40 L 429.30 384.20 L 421.90 387.00 L 414.80 390.40 L 408.10 394.20 L 401.70 398.50 L 395.60 403.40 L 389.90 408.60 L 384.70 414.20 L 379.90 420.30 L 375.50 426.70 L 371.70 433.50 L 368.40 440.50 L 365.60 447.90 L 363.80 454.00 L 362.30 460.20 L 361.30 466.50 L 360.70 473.00 L 360.40 479.70 L 360.70 486.40 L 361.30 492.90 L 362.30 499.30 L 363.80 505.40 L 365.60 511.50 L 368.40 518.90 L 371.70 525.90 L 375.50 532.70 L 379.90 539.10 L 384.70 545.20 L 389.90 550.80 L 395.60 556.10 L 401.70 560.90 L 408.10 565.20 L 414.80 569.10 L 421.90 572.40 L 429.30 575.20 L 435.30 577.00 L 441.50 578.40 L 447.80 579.50 L 454.40 580.10 L 461.10 580.30 L 468.80 580.00 L 476.40 579.20 L 483.70 577.80 L 490.90 575.80 L 497.80 573.40 L 504.50 570.40 L 511.00 567.00 L 517.10 563.20 L 523.00 558.90 L 588.10 610.40 L 591.30 612.60 L 594.70 614.30 L 598.20 615.50 L 601.80 616.30 L 605.50 616.60 L 609.20 616.40 L 612.80 615.70 L 616.20 614.60 L 619.60 613.00 L 622.80 611.10 L 625.60 608.60 L 628.30 605.70 L 630.50 602.40 L 632.20 599.10 L 633.50 595.60 L 634.20 591.90 L 634.50 588.30 L 634.30 584.60 L 633.60 581.00 L 632.50 577.50 L 631.00 574.10 L 629.00 571.00 L 626.50 568.10 L 623.60 565.50 Z M 388.60 479.70 L 388.80 473.70 L 389.50 467.90 L 390.70 462.30 L 392.30 456.80 L 394.30 451.50 L 396.70 446.40 L 399.40 441.50 L 402.60 436.90 L 406.10 432.50 L 409.80 428.50 L 413.90 424.70 L 418.30 421.20 L 422.90 418.10 L 427.80 415.30 L 432.80 412.90 L 438.20 410.90 L 443.60 409.30 L 449.30 408.20 L 455.10 407.50 L 461.10 407.20 L 467.10 407.50 L 472.90 408.20 L 478.50 409.30 L 484.00 410.90 L 489.30 412.90 L 494.40 415.30 L 499.20 418.10 L 503.90 421.20 L 508.20 424.70 L 512.30 428.50 L 516.10 432.50 L 519.60 436.90 L 522.70 441.50 L 525.50 446.40 L 527.80 451.50 L 529.90 456.80 L 531.50 462.30 L 532.60 467.90 L 533.30 473.70 L 533.60 479.70 L 533.30 485.70 L 532.60 491.50 L 531.50 497.10 L 529.90 502.60 L 527.80 507.90 L 525.50 513.00 L 522.70 517.90 L 519.60 522.50 L 516.10 526.90 L 512.30 531.00 L 508.20 534.70 L 503.90 538.20 L 499.20 541.30 L 494.40 544.10 L 489.30 546.50 L 484.00 548.50 L 478.50 550.10 L 472.90 551.20 L 467.10 552.00 L 461.10 552.20 L 455.10 552.00 L 449.30 551.20 L 443.60 550.10 L 438.20 548.50 L 432.80 546.50 L 427.80 544.10 L 422.90 541.30 L 418.30 538.20 L 413.90 534.70 L 409.80 531.00 L 406.10 526.90 L 402.60 522.50 L 399.40 517.90 L 396.70 513.00 L 394.30 507.90 L 392.30 502.60 L 390.70 497.10 L 389.50 491.50 L 388.80 485.70 L 388.60 479.70 Z" fill="url(#SVGID_4_)" fill-rule="nonzero" group-id="1,8,10" node-id="123" stroke="none" target-height="237.49997" target-width="274.1" target-x="360.4" target-y="379.1"></path></g></g></g></svg>